<svg id="visual" viewBox="0 0 960 540" width="960" height="540" xmlns="http://www.w3.org/2000/svg" xmlns:xlink="http://www.w3.org/1999/xlink" version="1.1"><path d="M0 71L960 104L960 0L0 0Z" fill="#004941"></path><path d="M0 114L960 141L960 102L0 69Z" fill="#004c42"></path><path d="M0 141L960 163L960 139L0 112Z" fill="#004f44"></path><path d="M0 179L960 201L960 161L0 139Z" fill="#005245"></path><path d="M0 212L960 212L960 199L0 177Z" fill="#005546"></path><path d="M0 222L960 222L960 210L0 210Z" fill="#005847"></path><path d="M0 255L960 249L960 220L0 220Z" fill="#005b47"></path><path d="M0 363L960 352L960 247L0 253Z" fill="#005e48"></path><path d="M0 384L960 368L960 350L0 361Z" fill="#006149"></path><path d="M0 433L960 482L960 366L0 382Z" fill="#006449"></path><path d="M0 492L960 519L960 480L0 431Z" fill="#00674a"></path><path d="M0 541L960 541L960 517L0 490Z" fill="#006a4a"></path></svg>